<svg width="50" height="50" viewBox="0 0 50 50" fill="none" xmlns="http://www.w3.org/2000/svg">
<path d="M49.1667 5.11963H0.833301C0.373145 5.11963 0 5.49277 0 5.95293V44.0471C0 44.5073 0.373145 44.8804 0.833301 44.8804H49.1666C49.6269 44.8804 49.9999 44.5072 49.9999 44.0471V5.95293C50 5.49277 49.6269 5.11963 49.1667 5.11963ZM48.3333 43.2139H1.6667V6.78623H48.3334V43.2139H48.3333Z" fill="white"/>
<path d="M8.80552 12.564C6.20161 12.564 4.08325 14.6824 4.08325 17.2863C4.08325 19.8902 6.20161 22.0086 8.80552 22.0086C11.4094 22.0086 13.5278 19.8902 13.5278 17.2863C13.5278 14.6824 11.4094 12.564 8.80552 12.564ZM8.80552 14.2307C8.99995 14.2307 9.18989 14.2498 9.37427 14.2846L8.29038 16.453H5.86636C6.23013 15.172 7.40962 14.2307 8.80552 14.2307ZM8.80552 20.3418C7.40962 20.3418 6.23022 19.4005 5.86646 18.1195H8.64331L11.2158 19.1609C10.6561 19.8788 9.78403 20.3418 8.80552 20.3418ZM11.8428 17.617L9.95405 16.8523L10.8645 15.0308C11.4764 15.5899 11.8611 16.394 11.8611 17.2863C11.8611 17.398 11.8546 17.5083 11.8428 17.617Z" fill="white"/>
<path d="M29.1944 14.3232H15.4722C15.012 14.3232 14.6389 14.6964 14.6389 15.1565C14.6389 15.6168 15.0121 15.9898 15.4722 15.9898H29.1945C29.6547 15.9898 30.0278 15.6167 30.0278 15.1565C30.0277 14.6964 29.6546 14.3232 29.1944 14.3232Z" fill="white"/>
<path d="M25.6228 17.4964H15.4722C15.012 17.4964 14.6389 17.8695 14.6389 18.3297C14.6389 18.79 15.0121 19.163 15.4722 19.163H25.6229C26.0831 19.163 26.4562 18.7899 26.4562 18.3297C26.4562 17.8695 26.0831 17.4964 25.6228 17.4964Z" fill="white"/>
<path d="M45.6111 31.9272H25.7222C25.262 31.9272 24.8889 32.3004 24.8889 32.7605C24.8889 33.2208 25.2621 33.5938 25.7222 33.5938H45.6111C46.0713 33.5938 46.4444 33.2207 46.4444 32.7605C46.4444 32.3004 46.0712 31.9272 45.6111 31.9272Z" fill="white"/>
<path d="M45.6112 35.0383H30.5C30.0398 35.0383 29.6667 35.4115 29.6667 35.8716C29.6667 36.3319 30.0399 36.7049 30.5 36.7049H45.6112C46.0714 36.7049 46.4445 36.3318 46.4445 35.8716C46.4445 35.4115 46.0713 35.0383 45.6112 35.0383Z" fill="white"/>
<path d="M45.6111 38.1495H22.1114C21.6511 38.1495 21.2781 38.5226 21.2781 38.9828C21.2781 39.4429 21.6512 39.8161 22.1114 39.8161H45.6111C46.0713 39.8161 46.4444 39.443 46.4444 38.9828C46.4444 38.5226 46.0712 38.1495 45.6111 38.1495Z" fill="white"/>
<path d="M26.0672 9.8922L26.2637 9.69571C26.5892 9.37022 26.5892 8.84259 26.2637 8.51729C25.9382 8.1918 25.4106 8.1918 25.0853 8.51729L24.8888 8.71358L24.6923 8.5171C24.3668 8.19161 23.8392 8.19161 23.5139 8.5171C23.1884 8.84258 23.1884 9.37022 23.5139 9.69552L23.7104 9.892L23.5139 10.0885C23.1884 10.414 23.1884 10.9416 23.5139 11.267C23.6766 11.4297 23.8899 11.5111 24.1031 11.5111C24.3163 11.5111 24.5297 11.4298 24.6924 11.267L24.8889 11.0705L25.0854 11.267C25.2481 11.4297 25.4614 11.5111 25.6746 11.5111C25.8878 11.5111 26.1012 11.4298 26.2639 11.267C26.5894 10.9415 26.5894 10.4139 26.2639 10.0886L26.0672 9.8922Z" fill="white"/>
<path d="M33.1111 9.05865H28.4444C27.9841 9.05865 27.6111 9.4318 27.6111 9.89196C27.6111 10.3522 27.9842 10.7253 28.4444 10.7253H33.1111C33.5713 10.7253 33.9444 10.3521 33.9444 9.89196C33.9444 9.4318 33.5712 9.05865 33.1111 9.05865Z" fill="white"/>
<path d="M21.5557 9.05865H16.889C16.4287 9.05865 16.0557 9.4318 16.0557 9.89196C16.0557 10.3522 16.4288 10.7253 16.889 10.7253H21.5557C22.0159 10.7253 22.389 10.3521 22.389 9.89196C22.389 9.4318 22.0159 9.05865 21.5557 9.05865Z" fill="white"/>
<path d="M44.7388 15.9074C43.4272 14.5957 41.6832 13.8734 39.8283 13.8734C37.9734 13.8734 36.2294 14.5958 34.9178 15.9074C32.2103 18.6151 32.2103 23.0208 34.9178 25.7283C36.2295 27.0399 37.9734 27.7623 39.8283 27.7623C41.6832 27.7623 43.4272 27.0399 44.7388 25.7283C47.4465 23.0206 47.4465 18.6149 44.7388 15.9074ZM34.624 21.6749C34.3594 20.0541 34.8492 18.3331 36.0965 17.0859C36.3818 16.8007 36.6947 16.5535 37.028 16.3438L38.7094 20.3126L34.624 21.6749ZM43.5603 24.5498C42.5635 25.5467 41.2381 26.0957 39.8284 26.0957C38.4186 26.0957 37.0932 25.5467 36.0964 24.5498C35.706 24.1594 35.3901 23.7225 35.1479 23.257L40.092 21.6084C40.3124 21.5348 40.4922 21.3726 40.5879 21.1608C40.6836 20.9489 40.6863 20.7068 40.5957 20.4928L38.5621 15.6927C38.9716 15.5923 39.3959 15.5402 39.8283 15.5402C41.2381 15.5401 42.5635 16.0891 43.5603 17.086C45.6181 19.1438 45.6181 22.4921 43.5603 24.5498Z" fill="white"/>
<path d="M7.44463 34.6115H4.44463C3.98438 34.6115 3.61133 34.9846 3.61133 35.4448V38.9829C3.61133 39.4432 3.98447 39.8162 4.44463 39.8162H7.44463C7.90488 39.8162 8.27793 39.4431 8.27793 38.9829V35.4448C8.27803 34.9845 7.90498 34.6115 7.44463 34.6115ZM6.61133 38.1495H5.27803V36.278H6.61133V38.1495V38.1495Z" fill="white"/>
<path d="M12.8333 32H9.8333C9.37305 32 9 32.3731 9 32.8333V38.5163C9 38.9766 9.37314 39.3496 9.8333 39.3496H12.8333C13.2936 39.3496 13.6666 38.9765 13.6666 38.5163V32.8333C13.6667 32.3731 13.2936 32 12.8333 32ZM12 37.683H10.6667V33.6667H12V37.683Z" fill="white"/>
<path d="M18.4539 29.8583H15.4539C14.9937 29.8583 14.6206 30.2314 14.6206 30.6916V38.9828C14.6206 39.4431 14.9938 39.8161 15.4539 39.8161H18.4539C18.9142 39.8161 19.2872 39.4429 19.2872 38.9828V30.6916C19.2872 30.2313 18.9141 29.8583 18.4539 29.8583ZM17.6206 38.1495H16.2873V31.525H17.6206V38.1495Z" fill="white"/>
<path d="M30.556 24.8163H18.556C18.0957 24.8163 17.7227 25.1894 17.7227 25.6496C17.7227 26.1098 18.0958 26.4829 18.556 26.4829H30.556C31.0162 26.4829 31.3893 26.1097 31.3893 25.6496C31.3894 25.1893 31.0163 24.8163 30.556 24.8163Z" fill="white"/>
<path d="M46.2779 9.36118C46.7381 9.36118 47.1112 8.9881 47.1112 8.52788C47.1112 8.06766 46.7381 7.69458 46.2779 7.69458C45.8177 7.69458 45.4446 8.06766 45.4446 8.52788C45.4446 8.9881 45.8177 9.36118 46.2779 9.36118Z" fill="white"/>
<path d="M46.2779 42.2889C46.7381 42.2889 47.1112 41.9158 47.1112 41.4556C47.1112 40.9954 46.7381 40.6223 46.2779 40.6223C45.8177 40.6223 45.4446 40.9954 45.4446 41.4556C45.4446 41.9158 45.8177 42.2889 46.2779 42.2889Z" fill="white"/>
<path d="M3.72246 42.2889C4.18268 42.2889 4.55576 41.9158 4.55576 41.4556C4.55576 40.9954 4.18268 40.6223 3.72246 40.6223C3.26224 40.6223 2.88916 40.9954 2.88916 41.4556C2.88916 41.9158 3.26224 42.2889 3.72246 42.2889Z" fill="white"/>
<path d="M3.72246 9.36118C4.18268 9.36118 4.55576 8.9881 4.55576 8.52788C4.55576 8.06766 4.18268 7.69458 3.72246 7.69458C3.26224 7.69458 2.88916 8.06766 2.88916 8.52788C2.88916 8.9881 3.26224 9.36118 3.72246 9.36118Z" fill="white"/>
</svg>
