<svg width="50" height="50" viewBox="0 0 50 50" fill="none" xmlns="http://www.w3.org/2000/svg">
<path d="M49.0244 34.222H0.975586C0.436816 34.222 0 34.6589 0 35.1976V48.673C0 49.2118 0.436816 49.6486 0.975586 49.6486H49.0244C49.5632 49.6486 50 49.2118 50 48.673V35.1976C50 34.6589 49.5632 34.222 49.0244 34.222ZM38.1768 36.1733H42.3263V38.714H38.1768V36.1733ZM44.5721 40.6649V43.2057H42.0313V40.6649H44.5721ZM40.0804 40.6649V43.2057H35.9309V40.6649H40.0804ZM32.0761 36.1733H36.2256V38.714H32.0761V36.1733ZM33.9797 40.6649V43.2057H29.8302V40.6649H33.9797ZM25.9756 36.1733H30.125V38.714H25.9756V36.1733ZM27.8792 40.665V43.2058H23.7297V40.665H27.8792ZM19.875 36.1733H24.0245V38.714H19.875V36.1733ZM21.7786 40.6649V43.2057H17.6291V40.6649H21.7786ZM13.7743 36.1733H17.9238V38.714H13.7743V36.1733V36.1733ZM15.6778 40.6649V43.2057H11.5284V40.6649H15.6778ZM7.67373 36.1733H11.8232V38.714H7.67373V36.1733ZM9.57734 40.665V43.2058H5.42773V40.665H9.57734ZM1.95107 36.1731H5.72266V38.7138H1.95107V36.1731ZM1.95107 40.6649H3.47666V43.2057H1.95107V40.6649ZM5.72266 47.6975H1.95107V45.1568H5.72266V47.6975ZM11.8232 47.6975H7.67373V45.1568H11.8232V47.6975ZM17.9239 47.6975H13.7744V45.1568H17.9239V47.6975ZM30.125 47.6975H19.875V45.1568H30.125V47.6975ZM36.2257 47.6975H32.0762V45.1568H36.2257V47.6975ZM42.3263 47.6975H38.1768V45.1568H42.3263V47.6975ZM48.0489 47.6975H44.2773V45.1568H48.0489V47.6975V47.6975ZM46.5231 43.2058V40.665H48.0487V43.2058H46.5231ZM48.0489 38.7139H44.2773V36.1732H48.0489V38.7139V38.7139Z" fill="white"/>
<path d="M19.8889 0.35141H0.975586C0.436816 0.35141 0 0.788226 0 1.327V31.4489C0 31.9876 0.436816 32.4245 0.975586 32.4245H19.889C20.4277 32.4245 20.8646 31.9876 20.8646 31.4489V1.327C20.8645 0.788226 20.4276 0.35141 19.8889 0.35141ZM18.9134 30.4733H1.95107V2.30248H18.9134V30.4733Z" fill="white"/>
<path d="M49.0244 0.35141H24.356C23.8172 0.35141 23.3804 0.788226 23.3804 1.327V31.4489C23.3804 31.9876 23.8172 32.4245 24.356 32.4245H49.0243C49.5631 32.4245 49.9999 31.9876 49.9999 31.4489V1.327C50 0.788226 49.5632 0.35141 49.0244 0.35141ZM48.0488 30.4733H25.3314V6.46479H48.0488V30.4733ZM48.0489 4.51371H25.3314V2.30248H48.0489V4.51371Z" fill="white"/>
<path d="M15.765 5.25369H5.09912C4.56035 5.25369 4.12354 5.69051 4.12354 6.22928C4.12354 6.76805 4.56035 7.20487 5.09912 7.20487H15.765C16.3038 7.20487 16.7406 6.76805 16.7406 6.22928C16.7405 5.69041 16.3037 5.25369 15.765 5.25369Z" fill="white"/>
<path d="M10.4382 9.3172H5.09912C4.56035 9.3172 4.12354 9.75402 4.12354 10.2928C4.12354 10.8316 4.56035 11.2684 5.09912 11.2684H10.4382C10.977 11.2684 11.4138 10.8316 11.4138 10.2928C11.4137 9.75402 10.977 9.3172 10.4382 9.3172Z" fill="white"/>
<path d="M15.765 13.3806H5.09912C4.56035 13.3806 4.12354 13.8174 4.12354 14.3561C4.12354 14.8949 4.56035 15.3317 5.09912 15.3317H15.765C16.3038 15.3317 16.7406 14.8949 16.7406 14.3561C16.7405 13.8173 16.3037 13.3806 15.765 13.3806Z" fill="white"/>
<path d="M10.4382 17.4442H5.09912C4.56035 17.4442 4.12354 17.881 4.12354 18.4198C4.12354 18.9585 4.56035 19.3954 5.09912 19.3954H10.4382C10.977 19.3954 11.4138 18.9585 11.4138 18.4198C11.4137 17.8809 10.977 17.4442 10.4382 17.4442Z" fill="white"/>
<path d="M15.765 21.5074H5.09912C4.56035 21.5074 4.12354 21.9442 4.12354 22.483C4.12354 23.0217 4.56035 23.4586 5.09912 23.4586H15.765C16.3038 23.4586 16.7406 23.0217 16.7406 22.483C16.7405 21.9442 16.3037 21.5074 15.765 21.5074Z" fill="white"/>
<path d="M10.4382 25.571H5.09912C4.56035 25.571 4.12354 26.0078 4.12354 26.5465C4.12354 27.0853 4.56035 27.5221 5.09912 27.5221H10.4382C10.977 27.5221 11.4138 27.0853 11.4138 26.5465C11.4137 26.0078 10.977 25.571 10.4382 25.571Z" fill="white"/>
<path d="M29.6484 18.0137L32.7296 14.9325C33.1107 14.5517 33.1107 13.934 32.7296 13.5529C32.3486 13.172 31.7308 13.172 31.3501 13.5529L27.5792 17.3238C27.1982 17.7048 27.1982 18.3226 27.5792 18.7034L31.3501 22.4743C31.5405 22.6647 31.7902 22.7601 32.0398 22.7601C32.2894 22.7601 32.5391 22.6648 32.7296 22.4743C33.1105 22.0934 33.1105 21.4756 32.7296 21.0947L29.6484 18.0137Z" fill="white"/>
<path d="M45.8012 17.3239L42.0303 13.5531C41.6493 13.1721 41.0316 13.1721 40.6507 13.5531C40.2698 13.934 40.2698 14.5518 40.6507 14.9326L43.7319 18.0138L40.6507 21.0949C40.2698 21.4759 40.2698 22.0937 40.6507 22.4745C40.8411 22.665 41.0908 22.7603 41.3405 22.7603C41.5901 22.7603 41.8398 22.6651 42.0302 22.4745L45.8011 18.7036C46.1821 18.3225 46.1822 17.7048 45.8012 17.3239Z" fill="white"/>
<path d="M38.0874 10.8242C37.5647 10.6927 37.0348 11.0103 36.9036 11.5327L34.5845 20.7677C34.4533 21.2904 34.7706 21.8202 35.293 21.9515C35.3727 21.9715 35.4528 21.9812 35.5313 21.9812C35.9679 21.9812 36.3656 21.6858 36.4768 21.243L38.7959 12.008C38.9271 11.4855 38.6098 10.9555 38.0874 10.8242Z" fill="white"/>
</svg>
