<svg width="48" height="48" viewBox="0 0 48 48" fill="none" xmlns="http://www.w3.org/2000/svg">
<path fill-rule="evenodd" clip-rule="evenodd" d="M0 24C0 10.7452 10.7452 0 24 0C37.2548 0 48 10.7452 48 24C48 37.2548 37.2548 48 24 48C10.7452 48 0 37.2548 0 24ZM36.8 23.9823C36.8 23.116 36.7119 22.2497 36.5388 21.4089C36.37 20.5863 36.12 19.7774 35.7925 19.0066C35.4725 18.2478 35.0756 17.5163 34.6119 16.8347C34.155 16.1569 33.6287 15.5227 33.0505 14.9429C32.4712 14.3662 31.8336 13.8426 31.1567 13.3845C30.4729 12.922 29.741 12.5256 28.9822 12.2036C28.209 11.8772 27.3996 11.6269 26.5777 11.4596C25.7339 11.2874 24.8664 11.2 23.9995 11.2C23.1319 11.2 22.2644 11.2874 21.4219 11.4596C20.5987 11.6269 19.7893 11.8771 19.0167 12.2036C18.258 12.5257 17.5254 12.922 16.8416 13.3845C16.1647 13.8426 15.5272 14.3662 14.949 14.9429C14.3703 15.5227 13.844 16.1569 13.3864 16.8347C12.9252 17.5163 12.5276 18.2477 12.2064 19.0066C11.8788 19.7774 11.6282 20.5863 11.4588 21.4089C11.2875 22.2497 11.2 23.116 11.2 23.9823C11.2 24.8479 11.2875 25.7123 11.4588 26.555C11.6282 27.3775 11.8788 28.1852 12.2063 28.9572C12.5276 29.7155 12.9251 30.4464 13.3864 31.1279C13.8439 31.8052 14.3702 32.4405 14.949 33.0197C15.5271 33.5964 16.1647 34.1213 16.8416 34.58C17.5253 35.0406 18.2579 35.4369 19.0167 35.7584C19.7892 36.0842 20.5987 36.3338 21.4218 36.5023C22.2643 36.6759 23.1319 36.7645 23.9994 36.7645C24.8663 36.7645 25.7339 36.6759 26.5776 36.5023C27.3995 36.3338 28.209 36.0842 28.9822 35.7584C29.741 35.4369 30.4729 35.0406 31.1566 34.58C31.8335 34.1212 32.4711 33.5964 33.0505 33.0197C33.6286 32.4405 34.1549 31.8052 34.6118 31.1279C35.0756 30.4464 35.4725 29.7156 35.7925 28.9572C36.12 28.1852 36.37 27.3776 36.5388 26.555C36.7119 25.7123 36.8 24.8479 36.8 23.9823Z" fill="#07A989"/>
<path fill-rule="evenodd" clip-rule="evenodd" d="M26.3513 21.367C30.6672 19.6069 32.4204 17.0773 32.4411 17.048C33.9748 18.9073 34.9018 21.2821 34.9268 23.8697C34.7686 23.8373 31.0691 23.0434 27.3139 23.5153C27.237 23.3281 27.1583 23.1408 27.0776 22.9498C26.8507 22.4174 26.6051 21.8876 26.3513 21.367ZM30.1078 33.0346C29.9965 32.3767 29.4139 29.1724 27.9801 25.2379C31.5084 24.673 34.5667 25.6398 34.7917 25.7122C34.3054 28.7543 32.5622 31.3806 30.1078 33.0346ZM25.9319 25.7434C27.4701 29.7354 28.1051 33.0782 28.267 34.0319C26.9551 34.5892 25.5131 34.897 23.9993 34.897C21.4642 34.897 19.1366 34.0275 17.2808 32.5864C17.3036 32.537 19.4098 28.0123 25.8594 25.7672C25.8832 25.7585 25.9076 25.7515 25.9319 25.7434ZM31.2185 15.7898C31.1916 15.8297 29.6346 18.1964 25.51 19.7405C23.6406 16.3128 21.5873 13.5929 21.4236 13.3732C22.2492 13.1747 23.1111 13.0674 23.9993 13.0674C26.767 13.0674 29.2939 14.0952 31.2185 15.7898ZM24.2999 22.0798C24.6131 22.6927 24.9125 23.3144 25.1869 23.9347C25.0431 23.9759 24.8981 24.0184 24.7556 24.0658C18.8566 25.9706 15.8651 31.2701 15.8689 31.2758C14.1275 29.3428 13.0681 26.7863 13.0681 23.9822C13.0681 23.8648 13.0737 23.7512 13.0769 23.6339C13.2706 23.6414 18.6715 23.7624 24.2999 22.0798ZM19.3353 14.109C19.481 14.3031 21.5023 17.0424 23.3943 20.399C18.1459 21.7915 13.5906 21.734 13.3025 21.7315C14.0119 18.3512 16.287 15.5464 19.3353 14.109Z" fill="#07A989"/>
</svg>
