<svg width="50" height="50" viewBox="0 0 50 50" fill="none" xmlns="http://www.w3.org/2000/svg">
<path d="M49.4803 14.677C49.1248 14.2931 48.6183 14.0511 48.055 14.0511H43.2866V0.797872C43.2866 0.357128 42.9295 0 42.4887 0H7.51117C7.07043 0 6.7133 0.357128 6.7133 0.797872V14.051H1.94489C1.3817 14.051 0.875213 14.2931 0.519681 14.6769C0.198298 15.024 0 15.4867 0 15.9959V48.055C0 49.1276 0.872447 50 1.94489 50H48.0551C49.1276 50 50 49.1276 50 48.0551V15.9959C50 15.4867 49.8017 15.024 49.4803 14.677ZM7.51117 18.0306C7.95192 18.0306 8.30904 17.6735 8.30904 17.2328V1.59574H41.6909V17.2328C41.6909 17.6735 42.048 18.0306 42.4887 18.0306C42.9295 18.0306 43.2866 17.6735 43.2866 17.2328V15.6467H47.3299L25.898 37.9673C25.6579 38.2174 25.3389 38.3552 25 38.3552C24.6611 38.3552 24.342 38.2174 24.102 37.9673L2.67 15.6467H6.7133V17.2328C6.7133 17.6735 7.07053 18.0306 7.51117 18.0306V18.0306ZM48.0551 48.4043H1.94489C1.75564 48.4043 1.59574 48.2444 1.59574 48.0551V16.8319L16.1845 32.0255L3.34777 45.3946C3.04266 45.7123 3.05287 46.2174 3.37074 46.5227C3.52543 46.6712 3.72447 46.745 3.92319 46.745C4.13287 46.745 4.34213 46.663 4.49883 46.4997L17.2906 33.1774L22.951 39.0724C23.4948 39.6388 24.2226 39.9509 25.0001 39.9509C25.7777 39.9509 26.5053 39.6388 27.0493 39.0724L32.7096 33.1774L37.7129 38.3881C37.8696 38.5513 38.0788 38.6334 38.2885 38.6334C38.4872 38.6334 38.6863 38.5596 38.841 38.4111C39.1588 38.1059 39.169 37.6007 38.8639 37.283L33.8157 32.0255L48.4043 16.8319V48.0551C48.4043 48.2444 48.2444 48.4043 48.0551 48.4043V48.4043Z" fill="white"/>
<path d="M41.4033 39.9278C41.0981 39.6098 40.5931 39.5998 40.2752 39.9048C39.9573 40.21 39.9471 40.7151 40.2522 41.0329L45.5011 46.4996C45.6578 46.6628 45.8671 46.7449 46.0768 46.7449C46.2755 46.7449 46.4745 46.6711 46.6292 46.5226C46.9471 46.2173 46.9573 45.7122 46.6522 45.3945L41.4033 39.9278V39.9278Z" fill="white"/>
<path d="M15.574 26.3829H30.6483C32.0227 26.3829 33.141 25.2646 33.141 23.8902C33.141 23.3994 32.9984 22.9411 32.7526 22.555C33.4061 22.1051 33.8353 21.3519 33.8353 20.5004C33.8353 20.0096 33.6927 19.5515 33.4469 19.1653C34.1004 18.7154 34.5295 17.9622 34.5295 17.1107C34.5295 16.62 34.3869 16.1617 34.141 15.7755C34.7947 15.3256 35.2238 14.5724 35.2238 13.7209C35.2238 12.3465 34.1055 11.2282 32.731 11.2282L28.2053 11.2283C28.9608 9.61008 29.3682 7.68955 29.3682 5.68423C29.3682 4.30976 28.2499 3.19147 26.8754 3.19147C25.5009 3.19147 24.3826 4.30976 24.3826 5.68423C24.3826 8.74114 21.8956 11.2282 18.8387 11.2282H15.5741C15.1334 11.2282 14.7762 11.5853 14.7762 12.026V25.5851C14.7761 26.0258 15.1334 26.3829 15.574 26.3829V26.3829ZM25.9783 5.68423C25.9783 5.18966 26.3806 4.78721 26.8753 4.78721C27.37 4.78721 27.7723 5.18955 27.7723 5.68423C27.7723 7.92232 27.2088 10.02 26.1857 11.5907C26.0259 11.836 26.0133 12.1491 26.1527 12.4065C26.2922 12.6638 26.5615 12.8241 26.8542 12.8241L32.7309 12.824C33.2255 12.824 33.6279 13.2264 33.6279 13.721C33.6279 14.2157 33.2256 14.6181 32.7309 14.6181H30.6484C30.2076 14.6181 29.8505 14.9752 29.8505 15.4159C29.8505 15.8567 30.2076 16.2138 30.6484 16.2138H32.0368C32.5314 16.2138 32.9338 16.6162 32.9338 17.1109C32.9338 17.6056 32.5315 18.0079 32.0368 18.0079H30.6484C30.2076 18.0079 29.8505 18.3651 29.8505 18.8058C29.8505 19.2466 30.2076 19.6037 30.6484 19.6037H31.3425C31.8371 19.6037 32.2395 20.006 32.2395 20.5007C32.2395 20.9954 31.8372 21.3977 31.3425 21.3977H30.6484C30.2076 21.3977 29.8505 21.7549 29.8505 22.1956C29.8505 22.6363 30.2076 22.9935 30.6484 22.9935C31.1429 22.9935 31.5454 23.3959 31.5454 23.8906C31.5454 24.3853 31.1429 24.7872 30.6484 24.7872H19.6365V12.7782C23.199 12.3801 25.9783 9.35125 25.9783 5.68423V5.68423ZM16.3719 12.8239H18.0407V24.7872H16.3719V12.8239V12.8239Z" fill="white"/>
</svg>
