<svg width="50" height="50" viewBox="0 0 50 50" fill="none" xmlns="http://www.w3.org/2000/svg">
<path fill-rule="evenodd" clip-rule="evenodd" d="M22.5 40.0403H26.129V22.1371L22.5 20.9274V40.0403Z" fill="white"/>
<path fill-rule="evenodd" clip-rule="evenodd" d="M33.1453 14.2339C33.105 16.6533 32.3389 17.9033 30.7259 17.9033C29.0728 17.9033 27.3792 17.0162 25.1211 15.9274C22.0567 14.4759 20.605 14.0726 18.7099 14.0726C15.605 14.0726 13.1856 16.6533 13.347 21.0888H16.0485C16.0889 18.2662 17.097 17.0162 18.7099 17.0162C20.3228 17.0162 22.0164 17.8629 24.1131 18.9114C27.2179 20.3226 28.8308 20.9678 30.6453 20.9678C33.4276 20.9678 36.0082 19.4759 35.8067 14.2339H33.1453Z" fill="white"/>
<path fill-rule="evenodd" clip-rule="evenodd" d="M24.9597 0C11.2097 0 0 11.2097 0 24.9597C0 38.7097 11.2097 49.9194 24.9597 49.9194C38.7097 49.9194 49.9194 38.7097 49.9194 24.9597C49.9194 11.2097 38.75 0 24.9597 0ZM24.9597 48.3065C12.0968 48.3065 1.61291 37.8629 1.61291 24.9597C1.61291 12.0565 12.0968 1.61291 24.9597 1.61291C37.8226 1.61291 48.3065 12.0968 48.3065 24.9597C48.3065 37.8226 37.8226 48.3065 24.9597 48.3065Z" fill="white"/>
</svg>
