<svg width="50" height="50" viewBox="0 0 50 50" fill="none" xmlns="http://www.w3.org/2000/svg">
<g clip-path="url(#clip0_44_167)">
<path d="M23.8874 13.4272C21.3334 13.4272 19.2554 15.5052 19.2554 18.0592C19.2554 20.6132 21.3333 22.6913 23.8874 22.6913C26.4416 22.6913 28.5194 20.6133 28.5194 18.0592C28.5193 15.505 26.4415 13.4272 23.8874 13.4272ZM23.8874 20.9842C22.2746 20.9842 20.9623 19.672 20.9623 18.0591C20.9623 16.4462 22.2745 15.1341 23.8874 15.1341C25.5002 15.1341 26.8125 16.4463 26.8125 18.0591C26.8124 19.672 25.5001 20.9842 23.8874 20.9842Z" fill="white"/>
<path d="M44.148 12.016C42.4741 12.016 41.1122 13.3779 41.1122 15.0519C41.1122 16.7258 42.4741 18.0877 44.148 18.0877C45.822 18.0877 47.1839 16.7258 47.1839 15.0519C47.1838 13.3779 45.8219 12.016 44.148 12.016ZM44.148 16.3808C43.4153 16.3808 42.8191 15.7846 42.8191 15.0519C42.8191 14.3192 43.4152 13.723 44.148 13.723C44.8809 13.723 45.477 14.3192 45.477 15.0519C45.4769 15.7847 44.8808 16.3808 44.148 16.3808Z" fill="white"/>
<path d="M46.5623 3.84756L34.151 3.84708C32.2554 3.84708 30.7132 5.38976 30.7132 7.28597V11.2042H25.5956C25.5944 11.2042 25.5935 11.2041 25.5923 11.2041H6.95728C6.95513 11.2041 6.95298 11.2042 6.95064 11.2042H3.64749C1.63624 11.2042 0 12.8405 0 14.8517V36.7673C0 38.7785 1.63624 40.4147 3.64749 40.4147H16.7157L15.5634 45.0953C15.5624 45.0993 15.562 45.1034 15.5612 45.1074C15.5565 45.1279 15.5528 45.1487 15.5495 45.1698C15.548 45.1799 15.5461 45.19 15.5448 45.2002C15.5425 45.2204 15.5414 45.2411 15.5405 45.262C15.5401 45.2724 15.5391 45.2831 15.539 45.2936C15.539 45.2956 15.5387 45.2976 15.5387 45.2996C15.5387 45.325 15.5403 45.3502 15.5424 45.3751C15.5427 45.3784 15.5425 45.3816 15.5429 45.3848C15.5459 45.4161 15.551 45.4469 15.5573 45.4772C15.5581 45.4811 15.5594 45.4848 15.5603 45.4888C15.5662 45.5149 15.5732 45.5406 15.5814 45.5657C15.5837 45.5728 15.5866 45.5799 15.5892 45.5871C15.5969 45.6085 15.6052 45.6297 15.6146 45.6504C15.6185 45.6589 15.6227 45.6674 15.6269 45.6758C15.6363 45.6947 15.6461 45.7132 15.6567 45.7313C15.6619 45.7402 15.6671 45.749 15.6727 45.7577C15.6838 45.7751 15.6958 45.792 15.7082 45.8086C15.7124 45.8143 15.7159 45.8205 15.7204 45.8261C15.7224 45.8285 15.7246 45.8307 15.7266 45.8331C15.7416 45.8518 15.7575 45.8696 15.774 45.887C15.7784 45.8916 15.7824 45.8966 15.787 45.9012C15.8082 45.9225 15.8304 45.9425 15.8537 45.9614C15.8599 45.9664 15.8663 45.9707 15.8726 45.9756C15.8904 45.9893 15.9084 46.0025 15.9272 46.0148C15.9353 46.0201 15.9437 46.0249 15.952 46.0298C15.9698 46.0407 15.988 46.051 16.0069 46.0604C16.0156 46.0648 16.0242 46.0689 16.033 46.073C16.0523 46.082 16.0717 46.0901 16.0917 46.0976C16.1005 46.1009 16.1092 46.1042 16.118 46.1073C16.1387 46.1143 16.1598 46.1203 16.1811 46.1257C16.1898 46.128 16.1982 46.1305 16.2068 46.1324C16.2293 46.1374 16.2522 46.1412 16.2754 46.1442C16.2831 46.1452 16.2908 46.1468 16.2987 46.1477C16.3294 46.151 16.3606 46.1531 16.3921 46.1531H26.6812H33.4362C33.9077 46.1531 34.2897 45.7709 34.2897 45.2996C34.2897 44.8283 33.9077 44.4461 33.4362 44.4461H27.77L28.7623 40.415L43.6891 40.4146C45.4886 40.4146 46.9528 38.9511 46.9528 37.152V29.7692C48.6652 29.5744 50.0001 28.1175 50.0001 26.3539V7.28568C50.0004 5.38976 48.458 3.84756 46.5623 3.84756ZM35.1509 7.28568C35.1509 6.33118 35.9274 5.55461 36.882 5.55461H46.5623C47.5169 5.55451 48.2934 6.33108 48.2934 7.28568V8.29184H35.1509V7.28568ZM35.1508 9.99859H48.2933V23.5332H47.8852L43.5904 18.807C43.4286 18.629 43.1992 18.5275 42.9587 18.5275C42.7183 18.5275 42.4889 18.6289 42.3271 18.807L41.1077 20.1486L38.0798 16.8178C37.9181 16.64 37.6887 16.5384 37.4482 16.5384C37.2079 16.5384 36.9785 16.6399 36.8168 16.8179L35.1509 18.6507V9.99859H35.1508ZM45.5788 23.5332H44.1846L42.2613 21.4175L42.9587 20.65L45.5788 23.5332ZM35.151 21.1204L35.1848 21.1511L37.4484 18.6608L41.878 23.5332H35.151V21.1204ZM32.4202 7.28607C32.4202 6.41585 33.0656 5.69543 33.9021 5.57414C33.6113 6.07864 33.4438 6.66272 33.4438 7.28578V26.3537C33.4438 26.9763 33.611 27.5603 33.9016 28.0645C33.0653 27.9429 32.4201 27.2231 32.4201 26.3537V7.28607H32.4202ZM5.40053 30.4135L12.2664 23.3568L21.3941 33.3963H5.40053V30.4135ZM19.7778 29.0799L21.8285 26.8233L27.8015 33.3961H23.7008V33.3962L19.7778 29.0799ZM4.08939 38.7077H3.64749C2.57746 38.7078 1.70695 37.8373 1.70695 36.7673V14.8517C1.70695 13.7816 2.57746 12.9111 3.64749 12.9111H4.08939C3.83714 13.374 3.69358 13.9045 3.69358 14.4676V37.1516C3.69358 37.7147 3.83704 38.2449 4.08939 38.7077ZM26.0123 44.4458H17.4812L18.4735 40.4147H27.0046L26.0123 44.4458ZM45.2461 37.1518C45.2461 38.0096 44.5478 38.7074 43.6894 38.7074H6.95728C6.09887 38.7074 5.40053 38.0097 5.40053 37.1518V35.1033H45.2461V37.1518ZM45.2461 33.3963H30.1079L22.4602 24.9804C22.2984 24.8025 22.0691 24.701 21.8286 24.701C21.5882 24.701 21.3588 24.8024 21.197 24.9804L18.6244 27.8112L12.9189 21.5373C12.7605 21.3631 12.5373 21.2621 12.3019 21.2582C12.0643 21.2574 11.8399 21.3476 11.6759 21.5164L5.40063 27.9659V14.4677C5.40063 13.6104 6.09721 12.913 6.95406 12.9112H30.7133V26.3537C30.7133 28.2492 32.2555 29.7914 34.1511 29.7914L45.2462 29.7917V33.3963H45.2461ZM48.2934 26.3536C48.2934 27.3082 47.5169 28.0848 46.5623 28.0848L36.8754 28.0845C35.9238 28.0809 35.1508 27.306 35.1508 26.3536V25.2401H48.2933V26.3536H48.2934Z" fill="white"/>
</g>
<defs>
<clipPath id="clip0_44_167">
<rect width="50" height="50" fill="white"/>
</clipPath>
</defs>
</svg>
