<svg width="50" height="50" viewBox="0 0 50 50" fill="none" xmlns="http://www.w3.org/2000/svg">
<path d="M24.979 4.16669C13.4873 4.16669 4.1665 13.4854 4.1665 24.9792C4.1665 36.475 13.4853 45.7938 24.979 45.7938C36.4748 45.7938 45.7936 36.475 45.7936 24.9813C45.7936 13.4854 36.4748 4.16669 24.9811 4.16669H24.979ZM7.1415 24.9792C7.1415 22.4625 7.69984 20.0688 8.68734 17.9084L17.1978 40.6167C11.2457 37.8021 7.1415 31.8563 7.1415 24.9813V24.9792ZM24.9832 42.3604C23.2781 42.3588 21.5814 42.1211 19.9415 41.6542L25.2957 26.5021L30.7748 41.1354L30.8998 41.3771C28.9952 42.0286 26.9961 42.3608 24.9832 42.3604V42.3604ZM27.4332 16.8334C28.5061 16.7771 29.4748 16.6667 29.4748 16.6667C30.4352 16.5563 30.3248 15.1834 29.3644 15.2354C29.3644 15.2354 26.4728 15.4563 24.6061 15.4563C22.8561 15.4563 19.9061 15.2354 19.9061 15.2354C18.9436 15.1813 18.8332 16.6104 19.7915 16.6688C19.7915 16.6688 20.704 16.7771 21.6623 16.8334L24.4436 24.25L20.5394 35.6563L14.0457 16.8354C15.1228 16.7813 16.0873 16.6709 16.0873 16.6709C17.0457 16.5584 16.9353 15.1854 15.9748 15.2375C15.9748 15.2375 13.0853 15.4584 11.2228 15.4584L10.0748 15.4375C13.2623 10.7209 18.7457 7.60419 24.9769 7.60419C29.6228 7.60419 33.8498 9.33335 37.0269 12.1667L36.7936 12.15C35.0415 12.15 33.7998 13.6354 33.7998 15.2334C33.7998 16.6667 34.6457 17.875 35.5498 19.3084C36.2352 20.4688 37.0207 21.9542 37.0207 24.1C37.0207 25.5875 36.4373 27.3125 35.6665 29.7209L33.8832 35.5104L27.4332 16.8334V16.8334ZM33.9477 39.9938L39.3998 24.65C40.4207 22.1709 40.754 20.1917 40.754 18.4271C40.754 17.7875 40.7123 17.1938 40.6373 16.6396C42.0707 19.1853 42.8234 22.0577 42.8227 24.9792C42.8207 31.3896 39.254 36.9854 33.9477 39.9938V39.9938Z" fill="white"/>
</svg>
